<svg id="visual" viewBox="0 0 900 600" width="900" height="600" xmlns="http://www.w3.org/2000/svg" xmlns:xlink="http://www.w3.org/1999/xlink" version="1.1"><rect x="0" y="0" width="900" height="600" fill="#ffc0cb"></rect><path d="M0 372L21.5 371.8C43 371.7 86 371.3 128.8 379.2C171.7 387 214.3 403 257.2 411.3C300 419.7 343 420.3 385.8 423.3C428.7 426.3 471.3 431.7 514.2 419.8C557 408 600 379 642.8 374.3C685.7 369.7 728.3 389.3 771.2 401.3C814 413.3 857 417.7 878.5 419.8L900 422L900 601L878.5 601C857 601 814 601 771.2 601C728.3 601 685.7 601 642.8 601C600 601 557 601 514.2 601C471.3 601 428.7 601 385.8 601C343 601 300 601 257.2 601C214.3 601 171.7 601 128.8 601C86 601 43 601 21.5 601L0 601Z" fill="#ae57ff"></path><path d="M0 480L21.5 471.7C43 463.3 86 446.7 128.8 436.2C171.7 425.7 214.3 421.3 257.2 429.7C300 438 343 459 385.8 459.3C428.7 459.7 471.3 439.3 514.2 432.8C557 426.3 600 433.7 642.8 443.5C685.7 453.3 728.3 465.7 771.2 462.2C814 458.7 857 439.3 878.5 429.7L900 420L900 601L878.5 601C857 601 814 601 771.2 601C728.3 601 685.7 601 642.8 601C600 601 557 601 514.2 601C471.3 601 428.7 601 385.8 601C343 601 300 601 257.2 601C214.3 601 171.7 601 128.8 601C86 601 43 601 21.5 601L0 601Z" fill="#a54df7"></path><path d="M0 454L21.5 461.2C43 468.3 86 482.7 128.8 490.3C171.7 498 214.3 499 257.2 491.3C300 483.7 343 467.3 385.8 467.7C428.7 468 471.3 485 514.2 487.8C557 490.7 600 479.3 642.8 468.7C685.7 458 728.3 448 771.2 449C814 450 857 462 878.5 468L900 474L900 601L878.5 601C857 601 814 601 771.2 601C728.3 601 685.7 601 642.8 601C600 601 557 601 514.2 601C471.3 601 428.7 601 385.8 601C343 601 300 601 257.2 601C214.3 601 171.7 601 128.8 601C86 601 43 601 21.5 601L0 601Z" fill="#9c42f0"></path><path d="M0 504L21.5 510.2C43 516.3 86 528.7 128.8 526C171.7 523.3 214.3 505.7 257.2 496.2C300 486.7 343 485.3 385.8 486.7C428.7 488 471.3 492 514.2 495.5C557 499 600 502 642.8 508.2C685.7 514.3 728.3 523.7 771.2 521.8C814 520 857 507 878.5 500.5L900 494L900 601L878.5 601C857 601 814 601 771.2 601C728.3 601 685.7 601 642.8 601C600 601 557 601 514.2 601C471.3 601 428.7 601 385.8 601C343 601 300 601 257.2 601C214.3 601 171.7 601 128.8 601C86 601 43 601 21.5 601L0 601Z" fill="#9337e9"></path><path d="M0 544L21.5 548.5C43 553 86 562 128.8 561C171.7 560 214.3 549 257.2 547C300 545 343 552 385.8 550.5C428.7 549 471.3 539 514.2 535.2C557 531.3 600 533.7 642.8 533C685.7 532.3 728.3 528.7 771.2 528.2C814 527.7 857 530.3 878.5 531.7L900 533L900 601L878.5 601C857 601 814 601 771.2 601C728.3 601 685.7 601 642.8 601C600 601 557 601 514.2 601C471.3 601 428.7 601 385.8 601C343 601 300 601 257.2 601C214.3 601 171.7 601 128.8 601C86 601 43 601 21.5 601L0 601Z" fill="#8a2be2"></path></svg>