<svg id="visual" viewBox="0 0 900 600" width="900" height="600" xmlns="http://www.w3.org/2000/svg" xmlns:xlink="http://www.w3.org/1999/xlink" version="1.1"><rect x="0" y="0" width="900" height="600" fill="#0f0f10"></rect><path d="M0 423L21.5 417.7C43 412.3 86 401.7 128.8 405.2C171.7 408.7 214.3 426.3 257.2 425.7C300 425 343 406 385.8 395.5C428.7 385 471.3 383 514.2 379.5C557 376 600 371 642.8 382C685.7 393 728.3 420 771.2 418.8C814 417.7 857 388.3 878.5 373.7L900 359L900 601L878.5 601C857 601 814 601 771.2 601C728.3 601 685.7 601 642.8 601C600 601 557 601 514.2 601C471.3 601 428.7 601 385.8 601C343 601 300 601 257.2 601C214.3 601 171.7 601 128.8 601C86 601 43 601 21.5 601L0 601Z" fill="#ae57ff"></path><path d="M0 431L21.5 438.8C43 446.7 86 462.3 128.8 463.8C171.7 465.3 214.3 452.7 257.2 442.3C300 432 343 424 385.8 419.7C428.7 415.3 471.3 414.7 514.2 420.7C557 426.7 600 439.3 642.8 438.7C685.7 438 728.3 424 771.2 428.5C814 433 857 456 878.5 467.5L900 479L900 601L878.5 601C857 601 814 601 771.2 601C728.3 601 685.7 601 642.8 601C600 601 557 601 514.2 601C471.3 601 428.7 601 385.8 601C343 601 300 601 257.2 601C214.3 601 171.7 601 128.8 601C86 601 43 601 21.5 601L0 601Z" fill="#a54df7"></path><path d="M0 487L21.5 480.8C43 474.7 86 462.3 128.8 456.3C171.7 450.3 214.3 450.7 257.2 456.3C300 462 343 473 385.8 482.7C428.7 492.3 471.3 500.7 514.2 505C557 509.3 600 509.7 642.8 500.3C685.7 491 728.3 472 771.2 467C814 462 857 471 878.5 475.5L900 480L900 601L878.5 601C857 601 814 601 771.2 601C728.3 601 685.7 601 642.8 601C600 601 557 601 514.2 601C471.3 601 428.7 601 385.8 601C343 601 300 601 257.2 601C214.3 601 171.7 601 128.8 601C86 601 43 601 21.5 601L0 601Z" fill="#9c42f0"></path><path d="M0 495L21.5 496.7C43 498.3 86 501.7 128.8 500.2C171.7 498.7 214.3 492.3 257.2 498C300 503.7 343 521.3 385.8 528.2C428.7 535 471.3 531 514.2 527.8C557 524.7 600 522.3 642.8 519.7C685.7 517 728.3 514 771.2 512.8C814 511.7 857 512.3 878.5 512.7L900 513L900 601L878.5 601C857 601 814 601 771.2 601C728.3 601 685.7 601 642.8 601C600 601 557 601 514.2 601C471.3 601 428.7 601 385.8 601C343 601 300 601 257.2 601C214.3 601 171.7 601 128.8 601C86 601 43 601 21.5 601L0 601Z" fill="#9337e9"></path><path d="M0 560L21.5 559.3C43 558.7 86 557.3 128.8 558.8C171.7 560.3 214.3 564.7 257.2 561.5C300 558.3 343 547.7 385.8 540.7C428.7 533.7 471.3 530.3 514.2 532.2C557 534 600 541 642.8 547.3C685.7 553.7 728.3 559.3 771.2 563.3C814 567.3 857 569.7 878.5 570.8L900 572L900 601L878.5 601C857 601 814 601 771.2 601C728.3 601 685.7 601 642.8 601C600 601 557 601 514.2 601C471.3 601 428.7 601 385.8 601C343 601 300 601 257.2 601C214.3 601 171.7 601 128.8 601C86 601 43 601 21.5 601L0 601Z" fill="#8a2be2"></path></svg>