<svg id="visual" viewBox="0 0 900 600" width="900" height="600" xmlns="http://www.w3.org/2000/svg" xmlns:xlink="http://www.w3.org/1999/xlink" version="1.1"><rect x="0" y="0" width="900" height="600" fill="#ffc0cb"></rect><path d="M0 175L21.5 180.3C43 185.7 86 196.3 128.8 192.8C171.7 189.3 214.3 171.7 257.2 172.3C300 173 343 192 385.8 202.5C428.7 213 471.3 215 514.2 218.5C557 222 600 227 642.8 216C685.7 205 728.3 178 771.2 179.2C814 180.3 857 209.7 878.5 224.3L900 239L900 0L878.5 0C857 0 814 0 771.2 0C728.3 0 685.7 0 642.8 0C600 0 557 0 514.2 0C471.3 0 428.7 0 385.8 0C343 0 300 0 257.2 0C214.3 0 171.7 0 128.8 0C86 0 43 0 21.5 0L0 0Z" fill="#ae57ff"></path><path d="M0 167L21.5 159.2C43 151.3 86 135.7 128.8 134.2C171.7 132.7 214.3 145.3 257.2 155.7C300 166 343 174 385.8 178.3C428.7 182.7 471.3 183.3 514.2 177.3C557 171.3 600 158.7 642.8 159.3C685.7 160 728.3 174 771.2 169.5C814 165 857 142 878.5 130.5L900 119L900 0L878.5 0C857 0 814 0 771.2 0C728.3 0 685.7 0 642.8 0C600 0 557 0 514.2 0C471.3 0 428.7 0 385.8 0C343 0 300 0 257.2 0C214.3 0 171.7 0 128.8 0C86 0 43 0 21.5 0L0 0Z" fill="#a54df7"></path><path d="M0 111L21.5 117.2C43 123.3 86 135.7 128.8 141.7C171.7 147.7 214.3 147.3 257.2 141.7C300 136 343 125 385.8 115.3C428.7 105.7 471.3 97.3 514.2 93C557 88.7 600 88.3 642.8 97.7C685.7 107 728.3 126 771.2 131C814 136 857 127 878.5 122.5L900 118L900 0L878.5 0C857 0 814 0 771.2 0C728.3 0 685.7 0 642.8 0C600 0 557 0 514.2 0C471.3 0 428.7 0 385.8 0C343 0 300 0 257.2 0C214.3 0 171.7 0 128.8 0C86 0 43 0 21.5 0L0 0Z" fill="#9c42f0"></path><path d="M0 103L21.5 101.3C43 99.7 86 96.3 128.8 97.8C171.7 99.3 214.3 105.7 257.2 100C300 94.3 343 76.7 385.8 69.8C428.7 63 471.3 67 514.2 70.2C557 73.3 600 75.7 642.8 78.3C685.7 81 728.3 84 771.2 85.2C814 86.3 857 85.7 878.5 85.3L900 85L900 0L878.5 0C857 0 814 0 771.2 0C728.3 0 685.7 0 642.8 0C600 0 557 0 514.2 0C471.3 0 428.7 0 385.8 0C343 0 300 0 257.2 0C214.3 0 171.7 0 128.8 0C86 0 43 0 21.5 0L0 0Z" fill="#9337e9"></path><path d="M0 38L21.5 38.7C43 39.3 86 40.7 128.8 39.2C171.7 37.7 214.3 33.3 257.2 36.5C300 39.7 343 50.3 385.8 57.3C428.7 64.3 471.3 67.7 514.2 65.8C557 64 600 57 642.8 50.7C685.7 44.3 728.3 38.7 771.2 34.7C814 30.7 857 28.3 878.5 27.2L900 26L900 0L878.5 0C857 0 814 0 771.2 0C728.3 0 685.7 0 642.8 0C600 0 557 0 514.2 0C471.3 0 428.7 0 385.8 0C343 0 300 0 257.2 0C214.3 0 171.7 0 128.8 0C86 0 43 0 21.5 0L0 0Z" fill="#8a2be2"></path></svg>